<svg version="1.1" id="Layer_2" xmlns="http://www.w3.org/2000/svg" x="0" y="0" viewBox="0 0 80.3 80.3" style="enable-background:new 0 0 80.3 80.3" xml:space="preserve"><style>.st6{fill:#0c2c48}.st28{fill:#a3b9c4}</style><circle cx="40.2" cy="40.2" r="40.2" style="fill:#f6a09c"/><path style="fill:#fff" d="M13.7 16.6h52.9v47.3H13.7z"/><path style="fill:#f8a06d" d="M14.2 16.4h51.9v6.8H14.2z"/><path class="st6" d="M67.2 23.8H13v-8.2h54.2v8.2zm-52.7-1.5h51.2v-5.2H14.5v5.2zM27.7 59.7H16V25.8h11.7v33.9zm-10.2-1.5h8.7V27.3h-8.7v30.9zM29.9 26h34.3v8.3H29.9z"/><path class="st28" d="M31.4 27.5h31.3v5.3H31.4z"/><path class="st6" d="M29.9 35.7h9.2v21.7h-9.2z"/><path style="fill:#55ab99" d="M31.4 37.2h6.2v18.7h-6.2z"/><path class="st6" d="M42.5 35.7h9.2v21.7h-9.2z"/><path style="fill:#ed6b5a" d="M44 37.2h6.2v18.7H44z"/><path class="st6" d="M55.2 35.7h9.2v21.7h-9.2z"/><path class="st28" d="M56.7 37.2h6.2v18.7h-6.2z"/><path class="st6" d="M16.6 19.8c0-.4.3-.8.7-.8.4 0 .7.3.7.8 0 .4-.3.8-.7.8-.4-.1-.7-.4-.7-.8zM19 19.8c0-.4.3-.8.7-.8.4 0 .7.3.7.8 0 .4-.3.8-.7.8-.4-.1-.7-.4-.7-.8zM21.5 19.8c0-.4.3-.8.7-.8.4 0 .7.3.7.8 0 .4-.3.8-.7.8-.4-.1-.7-.4-.7-.8z"/><g><path class="st6" d="M34.1 30c0-.4.3-.8.7-.8.4 0 .7.3.7.8 0 .4-.3.8-.7.8-.4 0-.7-.4-.7-.8zM36.6 30c0-.4.3-.8.7-.8.4 0 .7.3.7.8 0 .4-.3.8-.7.8-.5 0-.7-.4-.7-.8zM39 30c0-.4.3-.8.7-.8s.7.3.7.8c0 .4-.3.8-.7.8-.4 0-.7-.4-.7-.8z"/></g></svg>